<svg width="179" height="56" viewBox="0 0 179 56" fill="none" xmlns="http://www.w3.org/2000/svg">
<path d="M52.616 33.584H48.752L45.896 47H40.712L43.568 33.584H39.752L40.184 31.76H53.024L52.616 33.584ZM54.9273 42.176C54.8633 42.528 54.8153 42.864 54.7833 43.184C54.7673 43.504 54.7593 43.792 54.7593 44.048C54.7593 44.192 54.7673 44.352 54.7833 44.528C54.7993 44.704 54.8313 44.872 54.8793 45.032C54.9433 45.176 55.0233 45.304 55.1193 45.416C55.2313 45.512 55.3833 45.56 55.5753 45.56C55.7193 45.56 55.8793 45.512 56.0553 45.416C56.2473 45.32 56.4313 45.184 56.6073 45.008C56.7993 44.832 56.9753 44.616 57.1353 44.36C57.3113 44.104 57.4473 43.816 57.5433 43.496H61.4793L60.8553 46.064C60.5353 46.272 60.1673 46.448 59.7513 46.592C59.3353 46.736 58.8953 46.856 58.4313 46.952C57.9673 47.032 57.4953 47.088 57.0153 47.12C56.5353 47.168 56.0793 47.192 55.6473 47.192C54.8473 47.192 54.1033 47.12 53.4153 46.976C52.7273 46.832 52.1273 46.584 51.6153 46.232C51.1033 45.88 50.6953 45.416 50.3913 44.84C50.1033 44.248 49.9593 43.52 49.9593 42.656C49.9593 41.872 50.0793 41.104 50.3193 40.352C50.5753 39.6 50.9913 38.936 51.5673 38.36C52.1593 37.768 52.9433 37.296 53.9193 36.944C54.9113 36.592 56.1433 36.416 57.6153 36.416C59.2153 36.416 60.4153 36.664 61.2153 37.16C62.0313 37.656 62.4393 38.432 62.4393 39.488C62.4393 39.92 62.3753 40.392 62.2473 40.904C62.1193 41.4 61.9273 41.824 61.6713 42.176H54.9273ZM58.1193 39.32C58.1193 38.824 58.0393 38.488 57.8793 38.312C57.7193 38.136 57.5273 38.048 57.3033 38.048C57.0473 38.048 56.8073 38.136 56.5833 38.312C56.3753 38.472 56.1833 38.696 56.0073 38.984C55.8313 39.256 55.6713 39.576 55.5273 39.944C55.3833 40.296 55.2633 40.672 55.1673 41.072H57.9033C57.9353 40.88 57.9673 40.68 57.9993 40.472C58.0313 40.296 58.0553 40.104 58.0713 39.896C58.1033 39.688 58.1193 39.496 58.1193 39.32ZM73.4763 46.424C72.8043 46.696 72.0923 46.888 71.3403 47C70.6043 47.128 69.7643 47.192 68.8203 47.192C67.9883 47.192 67.2203 47.112 66.5163 46.952C65.8283 46.776 65.2283 46.504 64.7163 46.136C64.2043 45.768 63.8043 45.296 63.5163 44.72C63.2283 44.128 63.0843 43.416 63.0843 42.584C63.0843 41.72 63.2283 40.92 63.5163 40.184C63.8203 39.432 64.2683 38.776 64.8603 38.216C65.4683 37.656 66.2363 37.216 67.1643 36.896C68.0923 36.576 69.1963 36.416 70.4763 36.416C71.5163 36.416 72.4203 36.504 73.1883 36.68C73.9563 36.84 74.5883 37.216 75.0843 37.808L74.4123 40.88H71.1483C71.1643 40.608 71.1803 40.368 71.1963 40.16C71.2123 39.952 71.2203 39.72 71.2203 39.464C71.2203 38.952 71.1643 38.592 71.0523 38.384C70.9403 38.16 70.7563 38.048 70.5003 38.048C70.0523 38.048 69.6603 38.272 69.3243 38.72C68.9883 39.152 68.7083 39.68 68.4843 40.304C68.2763 40.912 68.1163 41.56 68.0043 42.248C67.9083 42.92 67.8603 43.496 67.8603 43.976C67.8603 44.152 67.8683 44.336 67.8843 44.528C67.9003 44.704 67.9323 44.872 67.9803 45.032C68.0443 45.192 68.1243 45.32 68.2203 45.416C68.3163 45.512 68.4523 45.56 68.6283 45.56C68.7883 45.56 68.9723 45.512 69.1803 45.416C69.3883 45.32 69.5883 45.176 69.7803 44.984C69.9723 44.776 70.1563 44.512 70.3323 44.192C70.5083 43.872 70.6443 43.488 70.7403 43.04H74.1723L73.4763 46.424ZM81.8639 38.216H82.0319C82.3359 37.912 82.6879 37.632 83.0879 37.376C83.4239 37.152 83.8239 36.952 84.2879 36.776C84.7519 36.6 85.2719 36.512 85.8479 36.512C86.6799 36.512 87.3679 36.728 87.9119 37.16C88.4559 37.576 88.7279 38.152 88.7279 38.888C88.7279 39.112 88.7039 39.368 88.6559 39.656C88.6079 39.928 88.5519 40.224 88.4879 40.544C88.4239 40.848 88.3519 41.16 88.2719 41.48C88.2079 41.784 88.1519 42.064 88.1039 42.32L87.0959 47H82.2239L83.5439 40.736C83.5759 40.528 83.6159 40.32 83.6639 40.112C83.7119 39.888 83.7359 39.688 83.7359 39.512C83.7359 39.272 83.6719 39.08 83.5439 38.936C83.4319 38.776 83.2559 38.696 83.0159 38.696C82.7279 38.696 82.4479 38.8 82.1759 39.008C81.9199 39.216 81.7199 39.4 81.5759 39.56L79.9919 47H75.0959L78.5039 30.872H83.4239L81.8639 38.216ZM92.6384 31.76H102.742L102.358 33.584H97.4384L96.5024 37.976H100.606L100.222 39.824H96.1184L94.5824 47H89.3984L92.6384 31.76ZM105.844 47H100.947L104.355 30.872H109.276L105.844 47ZM115.779 36.416C117.683 36.416 119.067 36.752 119.931 37.424C120.843 38.128 121.299 39.296 121.299 40.928C121.299 41.936 121.131 42.848 120.795 43.664C120.459 44.464 119.987 45.128 119.379 45.656C118.163 46.68 116.403 47.192 114.099 47.192C112.131 47.192 110.723 46.816 109.875 46.064C108.963 45.28 108.507 44.104 108.507 42.536C108.507 41.496 108.715 40.552 109.131 39.704C109.563 38.856 110.179 38.152 110.979 37.592C112.147 36.808 113.747 36.416 115.779 36.416ZM114.147 45.56C114.547 45.56 114.891 45.336 115.179 44.888C115.483 44.44 115.723 43.896 115.899 43.256C116.075 42.6 116.203 41.928 116.283 41.24C116.379 40.536 116.427 39.928 116.427 39.416C116.427 38.968 116.379 38.632 116.283 38.408C116.203 38.168 116.019 38.048 115.731 38.048C115.299 38.048 114.923 38.28 114.603 38.744C114.299 39.208 114.051 39.76 113.859 40.4C113.667 41.04 113.523 41.696 113.427 42.368C113.347 43.04 113.307 43.584 113.307 44C113.307 45.04 113.587 45.56 114.147 45.56ZM122.371 36.68H127.459L128.299 43.736L131.203 36.68H135.787L136.603 43.736L139.507 36.68H142.051L137.275 47H132.259L131.371 41.768L128.947 47H123.931L122.371 36.68Z" fill="url(#paint0_linear_247_1218)"/>
<path d="M52.2831 13.3524C50.5694 10.4889 46.4552 9.31246 40.6921 10.0309C39.9608 10.1228 39.2093 10.2497 38.4463 10.3988C36.2706 4.44446 32.8754 1.8335 28.9927 1.8335C25.1041 1.8335 21.7188 4.45708 19.5435 10.4281C12.9257 9.1618 7.68596 10.0624 5.71568 13.3524C3.75194 16.6356 5.54545 21.4481 9.96125 26.3335C5.54545 31.2189 3.75194 36.0313 5.71558 39.3145C7.1207 41.6649 10.1864 42.8038 14.2332 42.8038C16.0178 42.7801 17.7958 42.5902 19.5426 42.2366C21.7179 48.2089 25.1108 52.0001 28.9999 52.0001C32.8825 52.0001 36.3243 48.4543 38.5 42.5C38.0537 42.2319 38 42.5 38 42C38 42 38 42 38 41.5C38 36.8902 38.7148 35.5 39.2741 32.8194C41.2378 29.5364 52.4536 31.2189 48.0384 26.3335C52.4535 21.4481 54.2468 16.6356 52.2831 13.3524ZM41.0472 12.6591C41.9763 12.5388 42.9124 12.4761 43.8497 12.4714C46.8959 12.4714 49.0451 13.2373 49.9083 14.6791C51.1269 16.7169 49.7477 20.3756 46.158 24.4039C44.4225 22.7552 42.5636 21.2322 40.5963 19.8473C40.3332 17.535 39.8913 15.245 39.2741 12.9964C39.8638 12.8875 40.4798 12.7304 41.0472 12.6591ZM30 28.2622C28.4377 29.1333 30.5192 35.7069 29.0139 36.3837C27.4688 35.6894 28.0413 30.1092 26.5 29.2501C24.9319 28.3761 21.3428 32.2846 19.979 31.3608C19.8285 29.7599 19.7449 28.0824 19.7449 26.3335C19.7449 24.5845 27.3495 27.9344 27.5 26.3335C28.8638 25.4097 22.8082 19.4755 24.3763 18.6014C25.9106 17.7463 27.4548 16.9836 28.9927 16.2918C30.5072 16.9716 32.0501 17.7247 33.6224 18.6014C35.191 19.4758 27.6498 25.4092 29.0139 26.3335C29.1643 27.9341 38.2552 24.5849 38.2552 26.3335C38.2552 28.082 38.1716 29.7591 38.0212 31.3598C36.657 32.2841 31.5686 27.3879 30 28.2622ZM37.5567 34.8474C37.3184 36.2811 37.0027 37.7017 36.6109 39.1036C35.1704 38.7195 33.7507 38.2658 32.3573 37.7443C33.2344 37.3076 34.1145 36.8497 34.9963 36.3583C35.877 35.8675 36.7276 35.3618 37.5567 34.8474ZM25.6569 37.7494C24.2591 38.2707 22.8349 38.7235 21.3898 39.1061C20.9976 37.7032 20.6815 36.2814 20.4431 34.8466C21.2727 35.3613 22.1237 35.8671 23.0048 36.3583C23.8852 36.8493 24.7704 37.3082 25.6569 37.7494ZM17.0961 29.251C15.9186 28.3346 14.7903 27.3609 13.7157 26.3335C14.7903 25.306 15.9186 24.3322 17.0961 23.4158C17.0476 24.3732 17.0175 25.344 17.0175 26.3335C17.0175 27.323 17.0476 28.2937 17.0961 29.251ZM20.4432 17.8203C20.6813 16.3881 20.9967 14.9688 21.3881 13.5683C22.8362 13.9463 24.2634 14.3956 25.6641 14.9142C24.7753 15.3563 23.8878 15.8163 23.005 16.3086C22.1237 16.7998 21.2728 17.3056 20.4432 17.8203ZM32.3587 14.9223C33.7517 14.401 35.171 13.9475 36.611 13.5634C37.0028 14.9653 37.3185 16.386 37.5568 17.8196C36.7277 17.3052 35.8771 16.7996 34.9964 16.3087C34.1151 15.8174 33.2355 15.3588 32.3587 14.9223ZM40.9039 23.4168C42.0808 24.3329 43.2087 25.3064 44.2829 26.3335C43.2087 27.3605 42.0808 28.334 40.9038 29.2501C40.9521 28.2932 40.9824 27.3228 40.9824 26.3335C40.9824 25.3441 40.9523 24.3737 40.9039 23.4168ZM28.9927 10.4281C31.4039 10.4281 33.9689 6.18015 35.7846 11.0244C33.4659 11.653 31.1969 12.4417 28.9952 13.3844C26.7956 12.4444 24.528 11.6602 22.2104 11.038C24.0266 6.18531 26.58 10.4281 28.9927 10.4281ZM8.09029 14.6791C8.93934 13.2598 11.1157 12.4989 14.1813 12.4989C15.7105 12.5197 17.2343 12.6771 18.7334 12.969C18.1121 15.2266 17.6676 17.526 17.4035 19.848C15.4358 21.2327 13.5767 22.7558 11.8411 24.4047C8.25071 20.3763 6.8715 16.7171 8.09029 14.6791ZM8.09029 37.9878C6.8715 35.9498 8.25071 32.2906 11.8411 28.2622C13.5768 29.911 15.4359 31.4341 17.4035 32.819C17.6679 35.1453 18.1136 37.449 18.737 39.7106C13.3056 40.7115 9.3154 40.0358 8.09029 37.9878ZM28.9999 49.3668C26.5865 49.3668 24.0253 46.4803 22.2089 41.6254C24.5298 41.0065 26.8007 40.2247 29.0035 39.2862C31.2026 40.2272 33.4688 41.0146 35.7847 41.6423C33.969 46.4866 31.4111 49.3668 28.9999 49.3668Z" fill="url(#paint1_linear_247_1218)"/>
<defs>
<linearGradient id="paint0_linear_247_1218" x1="38" y1="38.5" x2="179" y2="38.5" gradientUnits="userSpaceOnUse">
<stop stop-color="#185BFF"/>
<stop offset="1" stop-color="#4078FF"/>
</linearGradient>
<linearGradient id="paint1_linear_247_1218" x1="4.92432" y1="26.9168" x2="53.0745" y2="26.9168" gradientUnits="userSpaceOnUse">
<stop stop-color="#185BFF"/>
<stop offset="1" stop-color="#4078FF"/>
</linearGradient>
</defs>
</svg>
