<svg width="21" height="21" viewBox="0 0 21 21" fill="none" xmlns="http://www.w3.org/2000/svg">
<path fill-rule="evenodd" clip-rule="evenodd" d="M4.5255 5.4005C3.5 6.42512 3.5 8.07538 3.5 11.375V16.2628C3.5 17.0415 4.44237 17.4326 4.99362 16.8814L6.87225 15.0028C6.93525 14.9397 6.96675 14.9082 7.007 14.8916C7.04725 14.875 7.09188 14.875 7.182 14.875H12.25C13.881 14.875 14.6965 14.875 15.3388 14.6081C16.1963 14.2531 16.8777 13.572 17.2331 12.7146C17.5 12.0715 17.5 11.256 17.5 9.625C17.5 7.994 17.5 7.1785 17.2331 6.53625C17.0574 6.11148 16.7998 5.72547 16.4749 5.40028C16.15 5.07509 15.7642 4.81709 15.3396 4.641C14.6965 4.375 13.881 4.375 12.25 4.375H10.5C7.20038 4.375 5.55012 4.375 4.5255 5.4005Z" fill="#26292F" fill-opacity="0.25"/>
<path d="M7.4375 8.3125H13.5625H7.4375ZM7.4375 10.9375H11.8125H7.4375Z" fill="#26292F" fill-opacity="0.25"/>
<path d="M7.4375 8.3125H13.5625M7.4375 10.9375H11.8125" stroke="#26292F" stroke-width="0.875" stroke-linecap="round" stroke-linejoin="round"/>
</svg>
