<svg width="14" height="15" viewBox="0 0 14 15" fill="none" xmlns="http://www.w3.org/2000/svg">
<path d="M10.75 6C11.9926 6 13 4.99264 13 3.75C13 2.50736 11.9926 1.5 10.75 1.5C9.50736 1.5 8.5 2.50736 8.5 3.75C8.5 4.99264 9.50736 6 10.75 6Z" stroke="#185BFF" stroke-width="1.875" stroke-linecap="round" stroke-linejoin="round"/>
<path d="M3.25 13.5C4.49264 13.5 5.5 12.4926 5.5 11.25C5.5 10.0074 4.49264 9 3.25 9C2.00736 9 1 10.0074 1 11.25C1 12.4926 2.00736 13.5 3.25 13.5Z" stroke="#185BFF" stroke-width="1.875" stroke-linecap="round" stroke-linejoin="round"/>
<path d="M8.5 9H13V12.75C13 12.9489 12.921 13.1397 12.7803 13.2803C12.6397 13.421 12.4489 13.5 12.25 13.5H9.25C9.05109 13.5 8.86032 13.421 8.71967 13.2803C8.57902 13.1397 8.5 12.9489 8.5 12.75V9ZM1 1.5H5.5V5.25C5.5 5.44891 5.42098 5.63968 5.28033 5.78033C5.13968 5.92098 4.94891 6 4.75 6H1.75C1.55109 6 1.36032 5.92098 1.21967 5.78033C1.07902 5.63968 1 5.44891 1 5.25V1.5Z" stroke="#185BFF" stroke-width="1.875" stroke-linecap="round" stroke-linejoin="round"/>
</svg>
