<svg width="21" height="21" viewBox="0 0 21 21" fill="none" xmlns="http://www.w3.org/2000/svg">
<path opacity="0.5" fill-rule="evenodd" clip-rule="evenodd" d="M6.34375 5.47575V5.6875C6.34375 5.86155 6.41289 6.02847 6.53596 6.15154C6.65903 6.27461 6.82595 6.34375 7 6.34375C7.17405 6.34375 7.34097 6.27461 7.46404 6.15154C7.58711 6.02847 7.65625 5.86155 7.65625 5.6875V5.46875H13.3438V5.6875C13.3438 5.86155 13.4129 6.02847 13.536 6.15154C13.659 6.27461 13.826 6.34375 14 6.34375C14.174 6.34375 14.341 6.27461 14.464 6.15154C14.5871 6.02847 14.6562 5.86155 14.6562 5.6875V5.47575C14.7531 5.47925 14.8412 5.48421 14.9205 5.49063C15.1725 5.51075 15.2924 5.5475 15.3711 5.58775C15.5776 5.69275 15.7448 5.85988 15.8498 6.06638C15.89 6.14513 15.9268 6.265 15.9469 6.51612C15.9679 6.77513 15.9688 7.11112 15.9688 7.6125V8.09375H5.03125V7.6125C5.03125 7.112 5.03125 6.77513 5.05313 6.51612C5.07325 6.265 5.11 6.14513 5.15025 6.06638C5.25517 5.86024 5.42274 5.69267 5.62888 5.58775C5.70763 5.5475 5.8275 5.51075 6.07862 5.49063C6.16686 5.48343 6.25526 5.47847 6.34375 5.47575ZM9.1875 6.125C9.01345 6.125 8.84653 6.19414 8.72346 6.31721C8.60039 6.44028 8.53125 6.6072 8.53125 6.78125C8.53125 6.9553 8.60039 7.12222 8.72346 7.24529C8.84653 7.36836 9.01345 7.4375 9.1875 7.4375H11.8125C11.9865 7.4375 12.1535 7.36836 12.2765 7.24529C12.3996 7.12222 12.4688 6.9553 12.4688 6.78125C12.4688 6.6072 12.3996 6.44028 12.2765 6.31721C12.1535 6.19414 11.9865 6.125 11.8125 6.125H9.1875Z" fill="#26292F"/>
<path d="M7.4375 12.25C7.72758 12.25 8.00578 12.1348 8.2109 11.9296C8.41602 11.7245 8.53125 11.4463 8.53125 11.1562C8.53125 10.8662 8.41602 10.588 8.2109 10.3829C8.00578 10.1777 7.72758 10.0625 7.4375 10.0625C7.14742 10.0625 6.86922 10.1777 6.6641 10.3829C6.45898 10.588 6.34375 10.8662 6.34375 11.1562C6.34375 11.4463 6.45898 11.7245 6.6641 11.9296C6.86922 12.1348 7.14742 12.25 7.4375 12.25ZM7.4375 15.3125C7.72758 15.3125 8.00578 15.1973 8.2109 14.9921C8.41602 14.787 8.53125 14.5088 8.53125 14.2188C8.53125 13.9287 8.41602 13.6505 8.2109 13.4454C8.00578 13.2402 7.72758 13.125 7.4375 13.125C7.14742 13.125 6.86922 13.2402 6.6641 13.4454C6.45898 13.6505 6.34375 13.9287 6.34375 14.2188C6.34375 14.5088 6.45898 14.787 6.6641 14.9921C6.86922 15.1973 7.14742 15.3125 7.4375 15.3125ZM11.5938 11.1562C11.5938 11.4463 11.4785 11.7245 11.2734 11.9296C11.0683 12.1348 10.7901 12.25 10.5 12.25C10.2099 12.25 9.93172 12.1348 9.7266 11.9296C9.52148 11.7245 9.40625 11.4463 9.40625 11.1562C9.40625 10.8662 9.52148 10.588 9.7266 10.3829C9.93172 10.1777 10.2099 10.0625 10.5 10.0625C10.7901 10.0625 11.0683 10.1777 11.2734 10.3829C11.4785 10.588 11.5938 10.8662 11.5938 11.1562ZM10.5 15.3125C10.7901 15.3125 11.0683 15.1973 11.2734 14.9921C11.4785 14.787 11.5938 14.5088 11.5938 14.2188C11.5938 13.9287 11.4785 13.6505 11.2734 13.4454C11.0683 13.2402 10.7901 13.125 10.5 13.125C10.2099 13.125 9.93172 13.2402 9.7266 13.4454C9.52148 13.6505 9.40625 13.9287 9.40625 14.2188C9.40625 14.5088 9.52148 14.787 9.7266 14.9921C9.93172 15.1973 10.2099 15.3125 10.5 15.3125ZM14.6562 11.1562C14.6562 11.4463 14.541 11.7245 14.3359 11.9296C14.1308 12.1348 13.8526 12.25 13.5625 12.25C13.2724 12.25 12.9942 12.1348 12.7891 11.9296C12.584 11.7245 12.4688 11.4463 12.4688 11.1562C12.4688 10.8662 12.584 10.588 12.7891 10.3829C12.9942 10.1777 13.2724 10.0625 13.5625 10.0625C13.8526 10.0625 14.1308 10.1777 14.3359 10.3829C14.541 10.588 14.6562 10.8662 14.6562 11.1562Z" fill="#26292F"/>
<path fill-rule="evenodd" clip-rule="evenodd" d="M7 2.84375C7.17405 2.84375 7.34097 2.91289 7.46404 3.03596C7.58711 3.15903 7.65625 3.32595 7.65625 3.5V4.15625H13.3438V3.5C13.3438 3.32595 13.4129 3.15903 13.536 3.03596C13.659 2.91289 13.826 2.84375 14 2.84375C14.174 2.84375 14.341 2.91289 14.464 3.03596C14.5871 3.15903 14.6562 3.32595 14.6562 3.5V4.16325C14.7893 4.16675 14.9132 4.17317 15.0281 4.1825C15.3606 4.20875 15.6721 4.26825 15.967 4.41875C16.4199 4.64946 16.788 5.01764 17.0188 5.4705C17.1693 5.76537 17.2287 6.07687 17.255 6.40937C17.2812 6.72875 17.2812 7.11812 17.2812 7.58625V14.2887C17.2812 14.7569 17.2812 15.1462 17.255 15.4656C17.2287 15.7981 17.1693 16.1096 17.0188 16.4045C16.7883 16.8572 16.4204 17.2254 15.9679 17.4563C15.6721 17.6068 15.3606 17.6662 15.0281 17.6925C14.7087 17.7187 14.3194 17.7188 13.8521 17.7188H7.14875C6.68062 17.7188 6.29125 17.7187 5.97187 17.6925C5.63937 17.6662 5.32787 17.6068 5.033 17.4563C4.58041 17.226 4.21226 16.8585 3.98125 16.4062C3.83075 16.1105 3.77125 15.799 3.745 15.4665C3.71875 15.1471 3.71875 14.7578 3.71875 14.2905V7.58625C3.71875 7.11812 3.71875 6.72875 3.745 6.40937C3.77125 6.07687 3.83075 5.76537 3.98125 5.4705C4.21196 5.01764 4.58014 4.64946 5.033 4.41875C5.32787 4.26825 5.63937 4.20875 5.97187 4.1825C6.08679 4.17317 6.21075 4.16675 6.34375 4.16325V3.5C6.34375 3.41382 6.36072 3.32848 6.3937 3.24886C6.42668 3.16924 6.47502 3.0969 6.53596 3.03596C6.5969 2.97502 6.66924 2.92668 6.74886 2.8937C6.82848 2.86072 6.91382 2.84375 7 2.84375ZM6.34375 5.6875V5.47575C6.25526 5.47847 6.16686 5.48343 6.07862 5.49063C5.8275 5.51075 5.70763 5.5475 5.62888 5.58775C5.42274 5.69267 5.25517 5.86024 5.15025 6.06638C5.11 6.14513 5.07325 6.265 5.05313 6.51612C5.03213 6.77513 5.03125 7.11112 5.03125 7.6125V8.09375H15.9688V7.6125C15.9688 7.112 15.9688 6.77513 15.9469 6.51612C15.9268 6.265 15.89 6.14513 15.8498 6.06638C15.7448 5.86024 15.5773 5.69267 15.3711 5.58775C15.2924 5.5475 15.1725 5.51075 14.9205 5.49063C14.8326 5.48345 14.7444 5.47849 14.6562 5.47575V5.6875C14.6562 5.86155 14.5871 6.02847 14.464 6.15154C14.341 6.27461 14.174 6.34375 14 6.34375C13.826 6.34375 13.659 6.27461 13.536 6.15154C13.4129 6.02847 13.3438 5.86155 13.3438 5.6875V5.46875H7.65625V5.6875C7.65625 5.86155 7.58711 6.02847 7.46404 6.15154C7.34097 6.27461 7.17405 6.34375 7 6.34375C6.82595 6.34375 6.65903 6.27461 6.53596 6.15154C6.41289 6.02847 6.34375 5.86155 6.34375 5.6875ZM15.9688 8.96875H5.03125V14.2625C5.03125 14.763 5.03125 15.0999 5.05313 15.358C5.07325 15.61 5.11 15.7299 5.15025 15.8086C5.25525 16.0151 5.42238 16.1823 5.62888 16.2873C5.70763 16.3275 5.8275 16.3643 6.07862 16.3844C6.33763 16.4054 6.67362 16.4062 7.175 16.4062H13.825C14.3255 16.4062 14.6624 16.4062 14.9205 16.3844C15.1725 16.3643 15.2924 16.3275 15.3711 16.2873C15.5773 16.1823 15.7448 16.0148 15.8498 15.8086C15.89 15.7299 15.9268 15.61 15.9469 15.358C15.9679 15.0999 15.9688 14.763 15.9688 14.2625V8.96875Z" fill="#26292F"/>
</svg>
